<svg xmlns="http://www.w3.org/2000/svg" viewBox="0 0 202.97 204.25"><defs><style>.tup--b-cls-1{fill:#bc875b;}.tup--b-cls-2{fill:#aa7753;}.tup--b-cls-3{fill:#c8915c;}.tup--b-cls-4{fill:#869c9e;}.tup--b-cls-5{fill:#ff8603;}.tup--b-cls-6{fill:#4c6e63;}.tup--b-cls-7{fill:#608779;}.tup--b-cls-8{fill:#ea6400;}.tup--b-cls-9{fill:#fee3cf;}.tup--b-cls-10{fill:#693b20;}.tup--b-cls-11{fill:#cda383;}.tup--b-cls-12{fill:#9ed8cd;}.tup--b-cls-13{fill:#53c1ac;}.tup--b-cls-14{fill:#9e6a81;}.tup--b-cls-15{fill:#ddb78a;}.tup--b-cls-16{fill:#bf9664;}.tup--b-cls-17{fill:#efdfca;}.tup--b-cls-18{fill:#e9edf2;}.tup--b-cls-19{fill:#f7eee2;}.tup--b-cls-20{fill:#738687;}.tup--b-cls-21{fill:#6d7771;}.tup--b-cls-22{fill:#b5abab;}.tup--b-cls-23{fill:#454342;}.tup--b-cls-24{fill:#807979;}.tup--b-cls-25{fill:#8c614f;}.tup--b-cls-26{fill:#805648;}.tup--b-cls-27{fill:#d6a206;}.tup--b-cls-28{fill:#47687c;}.tup--b-cls-29{fill:#51748e;}.tup--b-cls-30{fill:#995a4d;}.tup--b-cls-31{fill:#e1ab0b;}.tup--b-cls-32{fill:#f2eae2;}.tup--b-cls-33{fill:#c9b8a3;}.tup--b-cls-34{fill:#d6c8ba;}</style></defs><title>careers_people_global</title><g id="Layer_2" data-name="Layer 2"><g id="Layer_1-2" data-name="Layer 1"><path class="tup--b-cls-1" d="M146.72,107.84a36.54,36.54,0,0,1,1.72-5.49c-.37-.27,8.1-26.83,8.1-26.83C159.42,48,160.83,44.88,168.21,43c4.28-1.06-3.63,33.36-3.63,33.36l-9.71,25c-.13,0-1.52,6.74-1.52,6.74a11.88,11.88,0,0,1,1,2.88,4.85,4.85,0,0,1-1.1,2.69c-.28.84-1.29.69-1.29.69-.25,1.13-1,.8-1,.8-.54-.46-2.25-1.61-2.25-1.61C147.86,112.92,146.51,109.45,146.72,107.84Z"/><path class="tup--b-cls-2" d="M151.77,103.49a39.88,39.88,0,0,1-.89,4.59s1.49,2.16.64,3.11a16.64,16.64,0,0,1-2.69-2.52s1,2.81,1.17,3.25,1.58,1.3,1.73,2c0,0,1.1-.4,1.16-1,0,0,1-1.09.93-1.84a21,21,0,0,0-.76-2.83s1.45-2.94.65-4.94C153.66,103.22,151.86,103.58,151.77,103.49Z"/><path class="tup--b-cls-3" d="M174.42,109.88l-15.58-.76c1.5,9.79,3,19.31,3.75,22.33,1.66,6.94,1.69,45.93,1.69,45.93l6.47.32a170.18,170.18,0,0,1,2.37-18c4.42-23.94-.18-34.15-.18-34.15A82,82,0,0,0,174.42,109.88Z"/><path class="tup--b-cls-4" d="M170.76,177.69c-2.41,6-8.21,12.36-8.21,12.36l-4.79.31-4.83.89a2.36,2.36,0,0,0-.29,2.94l12.13.59,4.65-10.13L168.63,195l1.27.06,3.21-12.63A6.76,6.76,0,0,0,170.76,177.69Z"/><path class="tup--b-cls-3" d="M170.76,177.68l-2.91-2.92-3.56,2.6s-4.27,11.57-6.53,13l4.36.18S168.34,183.64,170.76,177.68Z"/><path class="tup--b-cls-3" d="M183.86,108.87l-15.19,3.56c4.14,9,8.23,17.73,9.76,20.43,3.5,6.21,14.28,43.68,14.28,43.68l6.31-1.48a170.15,170.15,0,0,1-2.7-18c-2.34-24.23-9.59-32.78-9.59-32.78A82,82,0,0,0,183.86,108.87Z"/><path class="tup--b-cls-4" d="M199,175.07c-.68,6.4-4.48,14.14-4.48,14.14L190,190.83l-4.4,2.18a2.36,2.36,0,0,0,.53,2.91L198,193.15l1.68-11,2.09,10.13L203,192l-.4-13A6.76,6.76,0,0,0,199,175.07Z"/><path class="tup--b-cls-3" d="M199,175.06l-3.6-2-2.71,3.48s-.92,12.3-2.69,14.3l4.24-1S198.34,181.45,199,175.06Z"/><path class="tup--b-cls-5" d="M164.6,80.94s-11.67,20.82-2.88,61.87c0,0,10.61,6,32.35.8,0,0,12.09-41.88-6.29-61.94Z"/><path class="tup--b-cls-3" d="M179.7,36.19c.51,1.16,3.23,4.79,3.8,5.87s-2,1.57-2.59,2.2a30,30,0,0,1-3.74,2.8,8.66,8.66,0,0,1-7.55,1.24c-.72-.27-2.6.43-2.3-.45.21-.59,2.78-3.23,3.68-5.1.44-.9-1.76-5-3.2-6.21,0,0,7.67-2.19,11.13-4.14A15.08,15.08,0,0,0,179.7,36.19Z"/><path class="tup--b-cls-3" d="M170.09,14.87c1.61-.19,4-1,5.6-.56s3.22.76,4.52,2c1.5,1.39,1.34,3.27,2.06,5,.94,2.26.94,4.39,1.07,6.83.35,6.69-11,9.89-11,9.89a20.42,20.42,0,0,1-7.36.81c-.86-.08-1.05-.45-1-1.26,0-.35.18-.73,0-1.05-.06-.11-.13-.2-.18-.31a2.1,2.1,0,0,0-.24-.32.34.34,0,0,1-.06-.36c.07-.13.3-.17.42-.2.39-.11.77-.62-.29-.75-.71-.09-.38-.58-.45-1.14s-.38-.64-.87-.74c-.85-.17-1.11-.88-.87-1.75a22.56,22.56,0,0,0,.78-3.13,30.62,30.62,0,0,0-.15-6.35C161.72,16.68,166.43,15.31,170.09,14.87Z"/><path class="tup--b-cls-6" d="M160.44,21.29c-.19-.12-.54-.17-.7-.37-.32-.39-.08-.31.2-.54,1.08-.88,4.19-4.28,5-4.77s1.5-.91,2.3-1.29c1.6-.77,7.26-2.33,8.6-2.13a15.46,15.46,0,0,1,2.83.15,9.06,9.06,0,0,1,3.25,1.57,2.61,2.61,0,0,1,.95,1.53s0,.09,0,.12a11.25,11.25,0,0,1,.91.8c2.62,2.35,3.42,5.05,4.45,8.39.28.91,2.27,9.44,1.31,9.43a21.51,21.51,0,0,0-4.76.83c-4,.88-8,2-12,2.47-.23,0-.76-2.77-.81-3A25.89,25.89,0,0,0,170.88,31q-.18-.48-.38-1a20.46,20.46,0,0,0-1.08-2.33c-.5-.88-1.18-1.62-1.64-2.53a13.25,13.25,0,0,1-.93-1.59,5.9,5.9,0,0,0-1.45-.47c-1.19-.06-2.37.06-3.56.07-1.5,0-2.5-1-3.76-1.68a6.74,6.74,0,0,1,1.4,0C159.58,21.48,160.43,21.29,160.44,21.29Z"/><path class="tup--b-cls-7" d="M170.7,22c-.56.37-1.72,1.11-1.73,1.12h0a4.55,4.55,0,0,1-.58.3c-.1,0-.69.31-.86.4l-.22.12-.27.14a2.42,2.42,0,0,1-.26-.53l.28-.15c.07,0,1.94-1,2.25-1.14.49-.28,5-2.94,6.51-3.68l1.4-.66c.49-.23,1.82-.93,1.88-1a19.47,19.47,0,0,1,3.54-1.52,3.51,3.51,0,0,1,.58.44A50.11,50.11,0,0,0,170.7,22Z"/><path class="tup--b-cls-8" d="M159.42,84.15c2.52-1.63,1.86-6.17,2.07-9a43.77,43.77,0,0,0,.5-5.78c-.16-2.59-1.66-5.11-2.84-7.38a3.93,3.93,0,0,1,.34-3.58c1.65-3,3.38-5.92,4.94-8.95.79-1.54,1.54-3.11,2.22-4.71.54-1.27.68-1.55,2-1.78a6.44,6.44,0,0,1,2.31-.2c0,1.08-1.74,1.65-.78,2.7a3.52,3.52,0,0,0,2.47.67c2.48-.06,4.14-1.48,6.1-2.79,1.51-1,5.4-2.67,7.2-1A15,15,0,0,1,187.65,44a25.63,25.63,0,0,1,1.81,2.29,40.88,40.88,0,0,1,3.19,7.24c1,3.47,1.05,7,1.53,10.62a83.52,83.52,0,0,1,.08,22.12C193.46,92.52,157.79,85.2,159.42,84.15Z"/><polygon class="tup--b-cls-9" points="158.61 79.19 161.45 65.77 153 65.04 152.87 78.7 158.61 79.19"/><polygon class="tup--b-cls-10" points="162.24 66.36 162.1 64.62 152.48 63.67 151.97 65.47 162.24 66.36"/><path class="tup--b-cls-3" d="M152.6,69.72c.37-.58,7.79.9,7.79.9l.35-1.67,2.62,2.85c.2-.42,19,.16,19,.16,2.55-20.64-3.9-31.12,5.47-28s1.27,37.47,1.27,37.47c-8.68,1-22.81-3.42-22.86-3.53s-3.36-1.13-3.45-1.42a24.28,24.28,0,0,1-3.8.76c-1.27.06-5.3-.11-6.08-1.63A10.44,10.44,0,0,1,152.6,69.72Z"/><path class="tup--b-cls-11" d="M105.13,171.07l3.5,11c-.3.09-2.37,4.18-4.42,3.3-2.21-.95-4.74-3.62-5-6.29a25.52,25.52,0,0,1,.44-7.58c.4-1.82,2.7-3.46,2.7-3.46Z"/><path class="tup--b-cls-11" d="M109.46,170.33l2.87-2.71,3.33,2.59a7.81,7.81,0,0,0,2.7,4.46s6.34,4.53,10.9,5.26.59,4.73-2.59,4l-17.3-3.79S110.29,176.93,109.46,170.33Z"/><path class="tup--b-cls-12" d="M127.64,179.46s5.13.27,5.17,3.14c0,2.47-3.2,2.34-6.27,2.5-5.9.31-6.35-.69-8.11-1.77a18.66,18.66,0,0,0-5.94-2.33l-.83,4-1.1,0s-.84-3.13-1.44-4.82c-.74-2.1.73-5,.73-5s2.17,1.32,6.67,4.63a10.35,10.35,0,0,0,9.15,1.88C128.45,180.8,127.64,179.46,127.64,179.46Z"/><path class="tup--b-cls-13" d="M132.81,182.59c1.31,2.09-3.2,2.34-6.27,2.5-5.9.31-6.35-.69-8.11-1.77a18.66,18.66,0,0,0-5.94-2.33l-.83,4-1.1,0s-.84-3.13-1.44-4.82c0,0,3.28-.38,8.33,2.13,4.47,2.21,5.78,2.68,11.59,1.93C131.92,183.84,132.81,182.59,132.81,182.59Z"/><path class="tup--b-cls-12" d="M99.19,179.53s-.61,4.71,3.38,6.49,6.23.58,6.71-.43,1.13-1.63-.83-4.5C108.45,181.09,101,184.34,99.19,179.53Z"/><path class="tup--b-cls-13" d="M99.2,181.15a5.52,5.52,0,0,0,3.46,5.34c3.86,1.83,6.11.75,6.62.25a2.62,2.62,0,0,0,.43-3.2,2.49,2.49,0,0,1-1.19,2.32,6.2,6.2,0,0,1-6.36-.72A9.31,9.31,0,0,1,99.2,181.15Z"/><path class="tup--b-cls-11" d="M112.62,27.41a2.52,2.52,0,0,0-1.32-.6c-1.32-.09-2,1.18-3.35.61s-2.25-1.68-3.42-2.53c-2.45-1.77-2.42.28-2.15,2.59a59.72,59.72,0,0,1-.18,10.79c-.18,1.31-.84,1.43-.06,2.59s2.33,1,3.48.87c1.32-.12,2.63-.35,3.94-.58a22.11,22.11,0,0,0,2.72-.4c0-3.64-.39-7.17.19-10.79C112.6,29.07,113.41,28.15,112.62,27.41Z"/><path class="tup--b-cls-14" d="M107.84,0a6.26,6.26,0,0,0-4.23,1.74,5.9,5.9,0,0,0-1.54,4.12A3.31,3.31,0,0,0,103.28,8a7.75,7.75,0,0,0,3,1.39,15,15,0,0,0,7.45.52c2.63-.65,2.95-5.33,1.49-7.08A8.3,8.3,0,0,0,107.84,0Z"/><path class="tup--b-cls-15" d="M109.42,11.31c-3.94-2.82-10.14,2-10.21,8s1.92,8.88,3.88,10.77c1.09,1.05,9.63,3.85,11.76-5.63C117.44,12.88,109.42,11.31,109.42,11.31Z"/><path class="tup--b-cls-16" d="M108.81,25.29c0-.21,0-.42-.06-.63-.05-.58-.1-1.17-.21-1.75a5.35,5.35,0,0,1,0-1.57c0-.17,0-.35.05-.53l-.56,0c0,.17,0,.34-.05.51A5.86,5.86,0,0,0,108,23c.1.55.15,1.13.2,1.69,0,.21,0,.42.06.63s0,.16,0,.24c.06.36,0,.39-.06.43a2.38,2.38,0,0,1-1.2-.18l-.19.53a4,4,0,0,0,1.18.24,1.09,1.09,0,0,0,.44-.08c.53-.24.44-.74.39-1C108.82,25.42,108.81,25.35,108.81,25.29Z"/><path class="tup--b-cls-14" d="M116.94,11.87c-1.88-3.23-5.81-3.06-9.07-3.51a14.12,14.12,0,0,0-4.67-.07c-2,.46-3.37,1.82-4.65,3.39a5.57,5.57,0,0,0-.88,1.52,3.94,3.94,0,0,0-.1,3c.39,1.09.35,2.33.63,3.46a3.93,3.93,0,0,0,1.1,2.36c1,.73.92-.63,1-1.28a3.54,3.54,0,0,1,.56-2.11c.54-.59,1.65-.75,2.33-1.2s1.73-1,2.51-1.59c1.83-1.48,2.06-3.05,2-5.25.66.93.72,2.14,1.29,3.11.84,1.42,1.71,1.3,3.13,1.95a4.85,4.85,0,0,1,2.61,3.06,6,6,0,0,1,.28,1.88c0,.5-.3,1.36,0,1.81.66.88,1.47-.51,1.78-1a10.46,10.46,0,0,0,1-3.06,7.12,7.12,0,0,0,0-4.25A9.07,9.07,0,0,0,116.94,11.87Z"/><path class="tup--b-cls-17" d="M92,40.48c1.12-.36,2.21-.81,3.31-1.22a24,24,0,0,0,2.76-.85,2.28,2.28,0,0,0,.89-.77c.19-.29.22-.89.46-1.13.75-.76,3.5-.11,4.45-.08a28.55,28.55,0,0,1,3.49.22,9.72,9.72,0,0,0,3.43.18c.59-.11,1.19-.26,1.63.27s.24,1,.77,1.3a15.22,15.22,0,0,0,1.75.7c2,.93,5.22,1.7,7.66,2.85a8.47,8.47,0,0,1,2.4,1.58,3.63,3.63,0,0,1,.88,1.46,7,7,0,0,1,.22,2.67c-.07.9-.21,1.81-.27,2.66,0,.19,0,.38,0,.56,0,1-.1,2-.21,3s-.21,1.77-.35,2.66c-.21,1.39-.47,2.78-.73,4.17L124,63.38c-.21,1.08-.4,2.15-.58,3.22l-.07.42c-.14.87-.28,1.77-.39,2.68a24.9,24.9,0,0,0-.2,4.18c0,.05,0,.11,0,.16.08.77.4,1.76.46,2.64a2,2,0,0,1-.39,1.51c-1.46,1.66-6.17.42-8.08.42-6.58,0-13.07-.62-19.65-.38h-.28c-2.54.08-2.24-9.6-2.34-11.19-.06-.89-2.82-6.8-3-7.68C88.36,51.68,87.34,45.22,92,40.48"/><path class="tup--b-cls-4" d="M119.42,74.64,97,74.72C80.61,89.89,92.33,122,92.33,122c.46.06.45,3.22,1,4.8,0,0,.78,41.23,4.92,41.82,1.85.26,7.07.42,7.68-.59,1.77-3-2.53-28.24-.56-37.89.39-1.93.68-27.39.88-30l2.08.05c.1,1-.38,24.94-.23,25.86,0,0-3.93,8.84-1,30.24.5,3.74-.13,6.24,2.24,12.15,0,0,5.49,1.39,6.68-1s-.13-29.63,1.63-35.7C118,130.23,121,122,121,122,130.27,89.74,119.42,74.64,119.42,74.64Z"/><polygon class="tup--b-cls-18" points="143.08 54.33 142.56 53.59 122.81 53.37 115.64 78.25 116.25 78.93 123.77 54.9 143.08 54.33"/><polygon class="tup--b-cls-19" points="143.08 54.33 123.26 54.33 116.25 78.92 136.01 78.92 143.08 54.33"/><path class="tup--b-cls-11" d="M133.51,68.68h.13s4.64-.09,5.11-.11l-1.59-.38s-3.46.48-3.68-.25v-.11c0-.38.53-.68.88-.73h.06a30.24,30.24,0,0,1,3-.48,21.3,21.3,0,0,1,2.34.47c.37,0,.52.33.52.74v.11c0,.19.07.36,0,.5h.07c-.07.1,0,.34,0,.34h-.12a.49.49,0,0,1,.28.52v.11a.81.81,0,0,1-.38.75h.06c-.28.22-.1.35-.1.35h0a.65.65,0,0,1,.17.23.77.77,0,0,1-.22.83,1,1,0,0,1-.38.19.46.46,0,0,0-.31.52.34.34,0,0,1,0,.14.71.71,0,0,1-.24.53,1.37,1.37,0,0,1-.82.28c-.21,0-.42,0-.63,0h-3c-.28,0-.8-.38-.8-.74v-.1c0-.36.64-.53.93-.53h-.55c-.36,0-1.06-.44-1.06-.85V70.9c0-.41.75-.63,1.12-.63h-.85c-.43,0-1.17-.28-1.17-.69v-.28C132.34,68.9,133.08,68.68,133.51,68.68Z"/><path class="tup--b-cls-11" d="M94.07,76s3.7,1.33,5.41,3.6c0,0,.71,1.05-.05,1.4s-.17,1.36-1,1.75-.45,1.19-1.65,1.36a1.15,1.15,0,0,1-1.06.84c-.84,0-2.77.18-3-.22a19,19,0,0,1-1.3-2.15c.06-.2.24-.49.9-.33a5.32,5.32,0,0,1-1.07-1,6.41,6.41,0,0,1-.83-1.92l-.19-3.57Z"/><path class="tup--b-cls-17" d="M92.81,73.69,83.05,63.06l9.1-8.35s5.5-14,1.19-14.06S74.28,58.85,74.82,64.2c0,0,0,3.59,13.27,14.23l2.13,1.44c4-1.25,3.86-4.44,3.86-4.44A14.83,14.83,0,0,1,92.81,73.69Z"/><polygon class="tup--b-cls-20" points="109.01 168.23 109.48 172.38 116.28 172.12 116 167.4 109.01 168.23"/><polygon class="tup--b-cls-20" points="98.22 168.66 99.4 172.79 105.89 172.32 105.69 168.15 98.22 168.66"/><path class="tup--b-cls-21" d="M107.53,76.49l.28,1.33.36-1.33Z"/><path class="tup--b-cls-21" d="M109.11,80.84l-.94-4.52a.33.33,0,0,0-.64,0l-2.88,10.59a.33.33,0,0,0,.64.18l2.52-9.26-.28-1.33h.64l-.36,1.33.64,3.06q.33,1.57.65,3.14l.21,1.07.06.3c0,.05,0,.17,0,.06,0,.43.69.43.66,0a11.79,11.79,0,0,0-.29-1.5Q109.44,82.39,109.11,80.84Z"/><path class="tup--b-cls-21" d="M107.75,75.87c-.22.27.08.74.4.51l.06,0,.06-.08,0,0h0A4,4,0,0,0,107.75,75.87Z"/><path class="tup--b-cls-21" d="M108.28,76.22h0c.18-.31-.27-.59-.54-.36h0A4,4,0,0,1,108.28,76.22Z"/><path class="tup--b-cls-21" d="M108.21,76.34l.13-.07-.05,0,0,0Z"/><path class="tup--b-cls-21" d="M108.15,76.38c-.32.23-.62-.24-.4-.51h0l-.05.06-.34.47a2.63,2.63,0,0,1,.54.37l.31-.43Z"/><path class="tup--b-cls-21" d="M110.63,75.83c-.79-.24-2.09-.55-2.82,0l-.06.06c.26-.22.72.05.54.36l.05,0a3.12,3.12,0,0,1,1.59.06,3,3,0,0,1,1.9,1,1.39,1.39,0,0,1-.65,2c-.53.23-1-.25-1.28-.65-.55-.75-.83-1.83-1.55-2.45l-.13.07-.31.43a1.94,1.94,0,0,1,.44.56c.21.41.41.82.65,1.21.44.72,1.06,1.57,2,1.55a2.16,2.16,0,0,0,1.75-2.17C112.69,76.87,111.54,76.1,110.63,75.83Z"/><polygon class="tup--b-cls-21" points="107.75 75.87 107.74 75.87 107.75 75.87 107.75 75.87"/><path class="tup--b-cls-21" d="M106.26,78.14a1.51,1.51,0,0,1-1.51.74c-.49,0-1.56,0-1.68-.67-.09-.48-.08-1.46.33-1.81.85-.71,2.63-.54,3.59-.17l.36.16.34-.47.05-.06a4.89,4.89,0,0,0-2.49-.58c-.91,0-2.23.14-2.63,1.11-.33.8-.51,2.2.35,2.74a3.54,3.54,0,0,0,2.89.23,1.93,1.93,0,0,0,1.06-1.05,14.85,14.85,0,0,1,1-1.54,2.63,2.63,0,0,0-.54-.37A15.16,15.16,0,0,0,106.26,78.14Z"/><path class="tup--b-cls-22" d="M45.65,191.31s.59-.92,3.09.66,8.17,4.73,12.75,5.61,5,1.35,5.06,2.82-4.12,3.2-6.67,3.3-9.27-.81-13-1.32-10.6-.14-11.18-.8.8-8.77.8-8.77A14.67,14.67,0,0,1,40.78,194C42.87,195,45.68,193.16,45.65,191.31Z"/><path class="tup--b-cls-23" d="M66.47,199.8a2.87,2.87,0,0,1-.36,2c-.59,1.11-2.94,2.24-6.7,2.47s-11-1.46-13.23-1.55-10.07-.17-10.44-.32-.18-1.63-.18-1.63,9.06.44,12.55.76S62.37,205,66.47,199.8Z"/><rect class="tup--b-cls-23" x="35.53" y="201.24" width="8.97" height="2.17" transform="translate(75.45 405.51) rotate(-178.71)"/><path class="tup--b-cls-24" d="M56.5,195.17l-.18.36h0l0,.4a2.17,2.17,0,0,0-1,0,13.24,13.24,0,0,0-2.45,1,2.79,2.79,0,0,0-.67.66l-.31-.26-.31-.26A5.65,5.65,0,0,1,56.5,195.17Z"/><path class="tup--b-cls-24" d="M53.5,193.65l-.18.36h0l0,.4a2.17,2.17,0,0,0-1,0,13.17,13.17,0,0,0-2.45,1,2.76,2.76,0,0,0-.67.66l-.31-.26-.31-.26A5.65,5.65,0,0,1,53.5,193.65Z"/><path class="tup--b-cls-24" d="M50.56,192.08l-.18.36h0l0,.39a2.19,2.19,0,0,0-1,0,13.28,13.28,0,0,0-2.45,1,2.76,2.76,0,0,0-.67.66l-.31-.26-.31-.26A5.65,5.65,0,0,1,50.56,192.08Z"/><path class="tup--b-cls-22" d="M17.8,182.51s.95-.21,1.57,2.18,2.31,7.56,4.69,10.74,2.36,3.69,1.5,4.62-4.63-.48-6.32-1.9a98.09,98.09,0,0,1-7.49-8.3c-2-2.44-6.71-6.23-6.67-7S11,178.13,11,178.13a12.12,12.12,0,0,1,2,3.17C13.74,183.09,16.67,183.63,17.8,182.51Z"/><path class="tup--b-cls-23" d="M25.89,199.64a2.53,2.53,0,0,1-1.45,1c-1.07.32-3.27-.37-5.82-2.41S12.5,191,11.1,189.6s-6.35-5.94-6.49-6.24.89-1.08.89-1.08S11,187.79,13.07,190,20,200.36,25.89,199.64Z"/><polygon class="tup--b-cls-23" points="5.24 182.52 10.86 187.84 9.49 189.11 3.86 183.78 5.24 182.52"/><path class="tup--b-cls-24" d="M22.37,191.1l-.34.11h0l-.28.21a1.89,1.89,0,0,0-.68-.56,12.35,12.35,0,0,0-2.2-.82,2.67,2.67,0,0,0-.84,0l0-.33,0-.33A5.19,5.19,0,0,1,22.37,191.1Z"/><path class="tup--b-cls-24" d="M21.38,188.46l-.34.11h0l-.28.21a1.89,1.89,0,0,0-.68-.56,12.28,12.28,0,0,0-2.2-.82,2.63,2.63,0,0,0-.84,0l0-.33,0-.33A5.19,5.19,0,0,1,21.38,188.46Z"/><path class="tup--b-cls-24" d="M20.47,185.81l-.34.11h0l-.27.21a1.91,1.91,0,0,0-.68-.56,12.39,12.39,0,0,0-2.2-.82,2.63,2.63,0,0,0-.84,0l0-.33,0-.33A5.19,5.19,0,0,1,20.47,185.81Z"/><path class="tup--b-cls-25" d="M60.48,108.66c2.57-.94,3.47,2,3.47,2A43.5,43.5,0,0,1,66,116.75c.25,1.68-1.08,5.32-2,6,0,0-2.2,1.61-2.75,2.1,0,0-1,0-.37-1.64,0,0-1.76,1-1.56-.57a3.4,3.4,0,0,1-1.26-2.45,12.4,12.4,0,0,1,1-3s-1.2-3.1-.6-5A3,3,0,0,1,60.48,108.66Z"/><path class="tup--b-cls-26" d="M61.71,111.28a41.64,41.64,0,0,0,1,4.77s-1.51,2.29-.6,3.27a17.38,17.38,0,0,0,2.75-2.69s-.85,3-1,3.5-1.26,1.19-1.88,2.08c0,0-1.16-.39-1.24-1,0,0-1-1.11-1-1.9a21.94,21.94,0,0,1,.73-3s-1.58-3-.79-5.14C59.73,111,61.62,111.37,61.71,111.28Z"/><path class="tup--b-cls-27" d="M49.82,61.44s0,15.31.81,22.7a99.63,99.63,0,0,0,7.14,27.4s3.39,2.07,7-2.63c0,0-3.94-21.25-5.27-26.72,0,0-1.11-18.46-2.49-27.48-1.42-9.25-5.51-9.9-5.51-9.9Z"/><path class="tup--b-cls-28" d="M51.12,101.24s1.52,52.18-4.9,56.53-26.1,29-26.1,29-8.22-.82-9.45-9.16L34.13,148.2l-2.91-46.68Z"/><path class="tup--b-cls-29" d="M18.39,99.78s1.62,16.58,3.35,25.11,13.75,68.79,13.75,68.79,8.18,2.58,12.74-2.22l-9.56-72,12.44-11.06.15-7.43Z"/><path class="tup--b-cls-30" d="M31.7,24.61s-2.81-1.28-3.5-.88-.58,5.54,0,6.28,3.95,1.09,3.95,1.09A18,18,0,0,1,31.7,24.61Z"/><path class="tup--b-cls-26" d="M41,33.39c-1.22,1.28-2.24,2.71-2.5,6.28-.22,3,3,2.26,3.19,5.23.18,3.25,7,8.38-2.69,10S21,43.63,23.75,41.26s3.81-15,3.81-15A138.28,138.28,0,0,1,41,33.39Z"/><path class="tup--b-cls-25" d="M26.93,12.66c4-.78,10.08-.55,12.56,1.79s4.43,8.47,5.32,11c.25.69,1.38,1.69,1.26,2.44s-1.12.34-1.52.67c-.55.46-.1.59.07,1.06a1.11,1.11,0,0,1,.07.61c0,.18-.15.34-.06.53a1.35,1.35,0,0,1,.13,1.18,2.2,2.2,0,0,0-.18.54l.14.91A2.47,2.47,0,0,1,45,34.5a.73.73,0,0,1-.29.49,4.42,4.42,0,0,1-1.84,1.53,14.91,14.91,0,0,1-3.63,0,15.83,15.83,0,0,1-3.7-.38,15,15,0,0,1-3.11-.61c-1.31-.62-1.75-5.31-1.75-5.31l-3,1.46s-4.93-.48-6-6.61C20.63,19.33,23,13.43,26.93,12.66Z"/><path class="tup--b-cls-26" d="M38.68,13.51a17.58,17.58,0,0,1,2.47,3.1,5.12,5.12,0,0,1-3.63-.74,5.24,5.24,0,0,0-4.91.36c-.14.16.25.84.68,2.85a14.69,14.69,0,0,1-.35,5.5,4,4,0,0,1-1.25,1.65,8.43,8.43,0,0,0-1,4s-3.88,2.43-3.88,3.13c0,0-1.46-1.4-2.84-2.46a8.69,8.69,0,0,1-3-5.18c-.55-2.43-.94-5.39.07-7.9s3.49-5.36,6.11-5.71S37.31,12.36,38.68,13.51Z"/><path class="tup--b-cls-25" d="M32.94,26a.79.79,0,0,1-1,.68c-.22,0-.85-1.27-1.07-1.3a4.58,4.58,0,0,0-2.21,0c-.43.44.54,5.1,1.06,5.71s2.56.32,2.56.32S34.21,29.66,32.94,26Z"/><path class="tup--b-cls-31" d="M38.45,39.67S40,47,36.81,49.2c-1.78,1.23-9.32-5.81-13.06-7.94,0,0-9,2.08-11.63,5.05,0,0,4.86,25.23,5.29,28.95s-1.27,21.83-.89,24.45,1.38,5,6.87,4.8c22-1,26.63-.34,28.15-1.27s.65-26.14,0-30.55-.1-27.89-.1-27.89S49,41.91,38.45,39.67Z"/><rect class="tup--b-cls-28" x="20.83" y="112.72" width="11.84" height="1.12" transform="translate(-85.38 82.07) rotate(-61.16)"/><path class="tup--b-cls-28" d="M39.61,105.51a.75.75,0,0,0,0,1.49A.75.75,0,0,0,39.61,105.51Z"/><rect class="tup--b-cls-32" x="3.61" y="74.85" width="35.26" height="24.58" transform="translate(-63.54 57.87) rotate(-57.25)"/><rect class="tup--b-cls-33" x="10.88" y="88.17" width="35.26" height="7.28" transform="matrix(0.54, -0.84, 0.84, 0.54, -64.14, 66.13)"/><rect class="tup--b-cls-34" x="7.05" y="88.44" width="35.26" height="1.82" transform="translate(-63.82 61.78) rotate(-57.25)"/><path class="tup--b-cls-25" d="M29.95,92.11a1.35,1.35,0,0,0,.76-1c-9.55-3-10.6,3.93-10.6,3.93-.53,4.15,3.61,4.37,6.86,5.18,4,1,6.11-4.27,6.11-4.27C36.16,94.6,31.94,92.85,29.95,92.11Z"/><path class="tup--b-cls-27" d="M12.12,46.32S5.63,46.19,0,81.32C0,81.32-.7,93,21.31,97.6c0,0,3.64-6.3,2.48-9l-12.89-9,4.95-16S17,52.06,12.12,46.32Z"/><path class="tup--b-cls-27" d="M40.16,39.88a4.69,4.69,0,0,0-1.76-.4s1.51,7.35-1.65,9.53C35,50.24,27.43,43.2,23.7,41.08a4.15,4.15,0,0,0-1.83.56s5.62,4.64,6.91,5.5,4.83,3.41,7.23,3.41,3.75-3.19,3.9-3.86S40.16,39.88,40.16,39.88Z"/></g></g></svg>